<?xml version="1.0" encoding="utf-8"?>
<!-- Generator: Adobe Illustrator 21.0.2, SVG Export Plug-In . SVG Version: 6.00 Build 0)  -->
<svg version="1.1" id="Layer_1" xmlns="http://www.w3.org/2000/svg" xmlns:xlink="http://www.w3.org/1999/xlink" x="0px" y="0px"
	 viewBox="0 0 400 45" style="enable-background:new 0 0 400 45;" xml:space="preserve">
<style type="text/css">
	.st0{fill:#E64F48;}
</style>
<g>
	<path class="st0" d="M5.5,38.8V6.1H0V0.7h33.8v13.1h-5.4V6.1H12.1V19h14.1v5.5H12.1v14.3h5.6v5.5H0v-5.5H5.5z"/>
	<path class="st0" d="M55.6,38.8V6.1h-6V0.7h17.7c3.7,0,6.6,0.3,8.8,0.9c2.2,0.6,4,1.8,5.4,3.6c1.4,1.8,2.1,4.1,2.1,6.9
		c0,5.8-3,9.4-9,10.9l7.7,15.9h5.3v5.5h-9.4l-9.9-20.4h-6.1v14.9h5.6v5.5H49.6v-5.5H55.6z M62.2,18.5h5.1c2.5,0,4.3-0.2,5.5-0.5
		c1.2-0.3,2.1-1,2.9-2s1.1-2.3,1.1-4c0-1.4-0.4-2.6-1.1-3.6c-0.8-1-1.7-1.6-2.8-1.9c-1.1-0.3-2.8-0.4-5.1-0.4h-5.6V18.5z"/>
	<path class="st0" d="M102,22.3c0-6.3,2.1-11.6,6.2-15.9c4.1-4.3,9.5-6.4,16.2-6.4c6.7,0,12.2,2.1,16.4,6.4c4.2,4.3,6.3,9.6,6.3,16
		c0,6.5-2.1,11.9-6.4,16.2c-4.3,4.3-9.7,6.4-16.4,6.4c-4.2,0-8.1-1-11.6-3c-3.5-2-6.2-4.8-8-8.4C102.9,29.9,102,26.2,102,22.3z
		 M109.2,22.3c0,4.8,1.4,8.8,4.2,12c2.8,3.2,6.5,4.9,11,4.9c4.5,0,8.2-1.7,11.1-5c2.9-3.3,4.4-7.3,4.4-11.9c0-4.6-1.5-8.6-4.4-11.8
		c-3-3.2-6.7-4.8-11.1-4.8c-4.4,0-8.1,1.6-10.9,4.7C110.6,13.7,109.2,17.6,109.2,22.3z"/>
	<path class="st0" d="M120.5,22.4c0-1.1,0.4-2.1,1.1-2.9c0.7-0.8,1.7-1.2,2.9-1.2c1.2,0,2.2,0.4,3,1.2c0.8,0.8,1.1,1.7,1.1,2.9
		c0,1.2-0.4,2.2-1.2,2.9c-0.8,0.8-1.8,1.2-3,1.2c-0.8,0-1.5-0.2-2.1-0.5s-1.1-0.9-1.4-1.5C120.6,23.8,120.5,23.1,120.5,22.4z"/>
	<path class="st0" d="M168.7,38.8V6.1h-6.2V0.7h14.9l19.1,33.9V6.1h-6.2V0.7h17.9v5.5h-6.4v38.6H195L174,7.5v31.3h6.2v5.5h-17.9
		v-5.5H168.7z"/>
	<path class="st0" d="M238.2,38.8V6.1h-9v11.1h-5.4V0.7h35.3v16.6h-5.4V6.1h-9v32.7h5.7v5.5h-17.8v-5.5H238.2z"/>
	<path class="st0" d="M280.3,38.8V6.1h-4.7V0.7h16v5.5h-4.7v32.7h4.7v5.5h-16v-5.5H280.3z"/>
	<path class="st0" d="M314.2,38.8V6.1h-5.6V0.7h36.2v13.1h-5.4V6.1h-18.6v13H337v5.5h-16.2v14.3h18.6v-7.9h5.4v13.4h-36.2v-5.5
		H314.2z"/>
	<path class="st0" d="M367.9,38.8V6.1h-6V0.7h17.7c3.7,0,6.6,0.3,8.8,0.9s4,1.8,5.4,3.6s2.1,4.1,2.1,6.9c0,5.8-3,9.4-9,10.9
		l7.7,15.9h5.3v5.5h-9.4l-9.9-20.4h-6.1v14.9h5.6v5.5h-18.1v-5.5H367.9z M374.5,18.5h5.1c2.5,0,4.3-0.2,5.5-0.5s2.1-1,2.9-2
		s1.1-2.3,1.1-4c0-1.4-0.4-2.6-1.1-3.6c-0.8-1-1.7-1.6-2.8-1.9c-1.1-0.3-2.8-0.4-5.1-0.4h-5.6V18.5z"/>
</g>
</svg>
